STARTFONT 2.3
FONT -FontForge-Permanent Marker-Book-R-Normal--14-140-72-72-P-81-ISO10646-1
SIZE 14 72 72  2
FONTBOUNDINGBOX 21 21 -4 -5
COMMENT "Generated by fontforge, http://fontforge.sourceforge.net"
COMMENT "Copyright (c) 2010 by Font Diner, Inc. All rights reserved."
STARTPROPERTIES 40
FOUNDRY "FontForge"
FAMILY_NAME "Permanent Marker"
WEIGHT_NAME "Book"
SLANT "R"
SETWIDTH_NAME "Normal"
ADD_STYLE_NAME ""
PIXEL_SIZE 14
POINT_SIZE 140
RESOLUTION_X 72
RESOLUTION_Y 72
SPACING "P"
AVERAGE_WIDTH 81
CHARSET_REGISTRY "ISO10646"
CHARSET_ENCODING "1"
FONTNAME_REGISTRY ""
CHARSET_COLLECTIONS "ISO10646-1"
BITS_PER_PIXEL 2
FONT_NAME "PermanentMarker-Regular"
FACE_NAME "Permanent Marker Regular"
COPYRIGHT "Copyright (c) 2010 by Font Diner, Inc. All rights reserved."
FONT_VERSION "1.001"
FONT_ASCENT 11
FONT_DESCENT 3
UNDERLINE_POSITION -1
UNDERLINE_THICKNESS 1
X_HEIGHT 7
CAP_HEIGHT 9
RAW_ASCENT 799
RAW_DESCENT 200
NORM_SPACE 5
RELATIVE_WEIGHT 40
RELATIVE_SETWIDTH 50
SUPERSCRIPT_X 0
SUPERSCRIPT_Y 6
SUPERSCRIPT_SIZE 8
SUBSCRIPT_X 0
SUBSCRIPT_Y 1
SUBSCRIPT_SIZE 8
AVG_LOWERCASE_WIDTH 78
AVG_UPPERCASE_WIDTH 95
ENDPROPERTIES
CHARS 230
STARTCHAR space
ENCODING 32
SWIDTH 370 0
DWIDTH 5 0
BBX 1 1 0 0
BITMAP
00
ENDCHAR
STARTCHAR exclam
ENCODING 33
SWIDTH 260 0
DWIDTH 4 0
BBX 4 11 0 -1
BITMAP
0E
1E
1E
2D
3D
3C
24
00
B4
B4
10
ENDCHAR
STARTCHAR quotedbl
ENCODING 34
SWIDTH 492 0
DWIDTH 7 0
BBX 7 7 1 4
BITMAP
1040
3CB4
7CF0
B9E0
B6E0
F2D0
A2C0
ENDCHAR
STARTCHAR numbersign
ENCODING 35
SWIDTH 703 0
DWIDTH 10 0
BBX 10 10 0 0
BITMAP
00C240
01D380
06EB80
3FFFF0
1B9F40
0BAE00
BFFFC0
7E7D00
3DB800
287400
ENDCHAR
STARTCHAR dollar
ENCODING 36
SWIDTH 493 0
DWIDTH 7 0
BBX 8 11 0 -1
BITMAP
0090
00E4
1BFD
7E55
7F80
05D0
01E0
2BC0
3F00
1E00
0400
ENDCHAR
STARTCHAR percent
ENCODING 37
SWIDTH 643 0
DWIDTH 9 0
BBX 9 10 0 0
BITMAP
060080
1F42C0
3B8B40
7FAD00
15B400
02D500
0B6E00
2D7B00
78BF40
746900
ENDCHAR
STARTCHAR ampersand
ENCODING 38
SWIDTH 599 0
DWIDTH 8 0
BBX 8 8 0 0
BITMAP
0050
00F0
7EF0
FFFE
BFFA
07D0
03C0
0140
ENDCHAR
STARTCHAR quotesingle
ENCODING 39
SWIDTH 265 0
DWIDTH 4 0
BBX 3 7 1 4
BITMAP
10
3C
7C
B8
B4
F0
A0
ENDCHAR
STARTCHAR parenleft
ENCODING 40
SWIDTH 361 0
DWIDTH 5 0
BBX 7 15 0 -3
BITMAP
0024
00B8
02F4
0BD0
1F40
2E00
3D00
3C00
7800
B800
B800
7C00
3C00
1C00
0400
ENDCHAR
STARTCHAR parenright
ENCODING 41
SWIDTH 361 0
DWIDTH 5 0
BBX 7 15 -2 -3
BITMAP
0080
00E0
00F0
00F4
00B4
00B4
00B4
00F0
01E0
03D0
0BC0
2F40
7D00
B400
5000
ENDCHAR
STARTCHAR asterisk
ENCODING 42
SWIDTH 673 0
DWIDTH 9 0
BBX 9 7 1 3
BITMAP
0A2C00
0FF800
5BFA40
FFFE80
1BF400
1F7800
191400
ENDCHAR
STARTCHAR plus
ENCODING 43
SWIDTH 579 0
DWIDTH 8 0
BBX 8 8 0 0
BITMAP
0040
02C0
03C0
6BE4
BFFD
1B80
0F40
0600
ENDCHAR
STARTCHAR comma
ENCODING 44
SWIDTH 204 0
DWIDTH 3 0
BBX 4 5 -2 -3
BITMAP
1D
2E
3D
78
10
ENDCHAR
STARTCHAR hyphen
ENCODING 45
SWIDTH 609 0
DWIDTH 9 0
BBX 8 3 0 2
BITMAP
6AA8
BFFD
1500
ENDCHAR
STARTCHAR period
ENCODING 46
SWIDTH 228 0
DWIDTH 3 0
BBX 3 3 -1 -1
BITMAP
3C
7C
10
ENDCHAR
STARTCHAR slash
ENCODING 47
SWIDTH 401 0
DWIDTH 6 0
BBX 8 10 -1 0
BITMAP
0006
001E
003D
00B4
02D0
0780
1E00
3C00
7400
7400
ENDCHAR
STARTCHAR zero
ENCODING 48
SWIDTH 686 0
DWIDTH 10 0
BBX 9 12 0 -1
BITMAP
001400
007D00
01FD00
07FE00
1F9F00
3F0B40
7D0780
B807C0
B96FC0
BFFF40
2FF800
054000
ENDCHAR
STARTCHAR one
ENCODING 49
SWIDTH 322 0
DWIDTH 5 0
BBX 4 10 0 0
BITMAP
28
2D
2E
1E
2E
2E
3D
7C
B8
74
ENDCHAR
STARTCHAR two
ENCODING 50
SWIDTH 650 0
DWIDTH 9 0
BBX 9 10 1 0
BITMAP
BFE000
FFF800
65BD00
02FC00
0BF400
2F8000
BE0100
FEBF80
FFFF80
BE9400
ENDCHAR
STARTCHAR three
ENCODING 51
SWIDTH 561 0
DWIDTH 8 0
BBX 8 10 0 0
BITMAP
6BFC
FFFE
FFFD
5FE4
1FE0
0BF8
00BD
16FD
BFF8
7E80
ENDCHAR
STARTCHAR four
ENCODING 52
SWIDTH 582 0
DWIDTH 8 0
BBX 8 12 0 -1
BITMAP
0010
0034
7078
7878
3DBE
3FFF
1FF9
02E0
02D0
02D0
01E0
0050
ENDCHAR
STARTCHAR five
ENCODING 53
SWIDTH 580 0
DWIDTH 8 0
BBX 10 10 0 0
BITMAP
068100
1FFFC0
3FFFD0
7F9400
3FD000
1BF000
00B800
2AFC00
3FF800
1B9000
ENDCHAR
STARTCHAR six
ENCODING 54
SWIDTH 500 0
DWIDTH 7 0
BBX 7 10 0 0
BITMAP
03C0
0BD0
1F40
2D00
7C40
BAF0
FBF8
FFF8
FFE0
BE40
ENDCHAR
STARTCHAR seven
ENCODING 55
SWIDTH 576 0
DWIDTH 8 0
BBX 9 10 0 0
BITMAP
BFA000
BFF800
56BC00
003C00
05BE40
3FFF80
3FF500
07D000
0B8000
0B0000
ENDCHAR
STARTCHAR eight
ENCODING 56
SWIDTH 537 0
DWIDTH 8 0
BBX 7 10 1 0
BITMAP
2F68
BFEC
F6FC
F6F8
BFE0
7F40
BB40
F780
BF80
3F40
ENDCHAR
STARTCHAR nine
ENCODING 57
SWIDTH 529 0
DWIDTH 7 0
BBX 8 10 0 0
BITMAP
06F0
1FF8
3E7C
7FFD
7FFC
15B4
00B4
00B0
00E0
00E0
ENDCHAR
STARTCHAR colon
ENCODING 58
SWIDTH 241 0
DWIDTH 3 0
BBX 4 7 -1 -1
BITMAP
1D
1E
04
00
3C
7C
10
ENDCHAR
STARTCHAR semicolon
ENCODING 59
SWIDTH 245 0
DWIDTH 3 0
BBX 4 9 -1 -3
BITMAP
1E
1E
04
00
28
7C
B8
F4
10
ENDCHAR
STARTCHAR less
ENCODING 60
SWIDTH 625 0
DWIDTH 9 0
BBX 9 7 0 0
BITMAP
000640
007F40
5BF900
FF4000
7FE000
06FC00
001800
ENDCHAR
STARTCHAR equal
ENCODING 61
SWIDTH 586 0
DWIDTH 8 0
BBX 8 6 0 1
BITMAP
0150
7FFE
6AA4
1554
BFF8
6540
ENDCHAR
STARTCHAR greater
ENCODING 62
SWIDTH 634 0
DWIDTH 9 0
BBX 9 7 -1 0
BITMAP
090000
0BE400
01FF40
007FC0
1BF940
7F4000
240000
ENDCHAR
STARTCHAR question
ENCODING 63
SWIDTH 556 0
DWIDTH 8 0
BBX 8 12 1 -1
BITMAP
0500
7FF9
BFFE
55BE
01FC
0BE4
2F40
3800
0000
E000
F000
4000
ENDCHAR
STARTCHAR at
ENCODING 64
SWIDTH 732 0
DWIDTH 10 0
BBX 10 12 0 -1
BITMAP
001400
003E00
00BF80
07D2D0
1F59E0
7DBDB0
F7DDB0
E7EED0
D2FA40
B95500
1FFF40
005500
ENDCHAR
STARTCHAR A
ENCODING 65
SWIDTH 702 0
DWIDTH 10 0
BBX 11 10 -1 0
BITMAP
000E00
007F40
01FF80
03FF80
07D7C0
0FDBF8
1FFFF4
2EBAE0
7D07E0
3803C0
ENDCHAR
STARTCHAR B
ENCODING 66
SWIDTH 686 0
DWIDTH 10 0
BBX 10 12 -1 -1
BITMAP
000400
1AFF80
7FFBE0
3F8BE0
07FFC0
03FF40
07FAD0
0B81F0
0F5BF0
1FFFD0
0FFA00
005000
ENDCHAR
STARTCHAR C
ENCODING 67
SWIDTH 611 0
DWIDTH 9 0
BBX 9 10 0 0
BITMAP
002E00
02FF40
1FFE00
3FD000
BE0000
F80000
F00000
BE5400
3FFE00
06FD00
ENDCHAR
STARTCHAR D
ENCODING 68
SWIDTH 588 0
DWIDTH 8 0
BBX 8 10 0 0
BITMAP
3900
3FD0
3AF4
382D
380F
381F
79BE
BFF8
BF90
7900
ENDCHAR
STARTCHAR E
ENCODING 69
SWIDTH 626 0
DWIDTH 9 0
BBX 9 10 0 0
BITMAP
01AF80
2FFF80
3FE500
2F5400
2FFD00
3FF800
BC0000
F95A00
BFFF00
7FF900
ENDCHAR
STARTCHAR F
ENCODING 70
SWIDTH 575 0
DWIDTH 8 0
BBX 10 11 0 0
BITMAP
000140
01BFD0
2FFFE0
3F9000
1F4000
5F5400
FFFE00
FFE800
780000
B40000
740000
ENDCHAR
STARTCHAR G
ENCODING 71
SWIDTH 789 0
DWIDTH 11 0
BBX 12 10 0 0
BITMAP
001F40
00BF80
03FE00
0FE400
3F8290
BE03F8
F802FE
B9AFFD
7FFFE0
2FE400
ENDCHAR
STARTCHAR H
ENCODING 72
SWIDTH 695 0
DWIDTH 10 0
BBX 10 10 0 0
BITMAP
080280
2D03C0
2E03D0
2E03D0
3D07D0
7EBFC0
7FFF80
BF9F40
FC1F40
B40A00
ENDCHAR
STARTCHAR I
ENCODING 73
SWIDTH 515 0
DWIDTH 7 0
BBX 10 10 -1 0
BITMAP
07FFE0
07FFE0
017C00
007800
00B400
00F000
02E000
03E400
7FFC00
7EA400
ENDCHAR
STARTCHAR J
ENCODING 74
SWIDTH 668 0
DWIDTH 9 0
BBX 12 10 -1 0
BITMAP
06AFFD
0FFFFF
0B9BD5
000B80
000B80
000F40
001F00
257E00
7FFC00
2BE000
ENDCHAR
STARTCHAR K
ENCODING 75
SWIDTH 776 0
DWIDTH 11 0
BBX 11 10 0 0
BITMAP
078050
0BC2F4
0F9FF4
1FBF80
3FFD00
7FF400
7FFD00
BF6FFC
BD0BF8
740050
ENDCHAR
STARTCHAR L
ENCODING 76
SWIDTH 632 0
DWIDTH 9 0
BBX 9 10 0 0
BITMAP
0B4000
0F8000
1F4000
2F0000
3E0000
7D0000
BC0000
FEA900
BFFF40
7FAA40
ENDCHAR
STARTCHAR M
ENCODING 77
SWIDTH 973 0
DWIDTH 14 0
BBX 14 10 0 0
BITMAP
02D00340
07F40BD0
0BF42FD0
1FF9FFD0
2FFFFFC0
7EFFDBC0
BD6A0B80
FC000F80
F4000F40
B0000600
ENDCHAR
STARTCHAR N
ENCODING 78
SWIDTH 684 0
DWIDTH 10 0
BBX 10 10 0 0
BITMAP
0381D0
07D2E0
0FD3E0
1FC3D0
3FC7C0
7FCBC0
BFEF80
FDFF40
F4BE00
702800
ENDCHAR
STARTCHAR O
ENCODING 79
SWIDTH 744 0
DWIDTH 10 0
BBX 10 11 0 0
BITMAP
000400
002E00
00BF40
07FF40
1FEB80
3F43D0
7D01E0
B802F0
F96FE0
BFFF80
2FF900
ENDCHAR
STARTCHAR P
ENCODING 80
SWIDTH 639 0
DWIDTH 9 0
BBX 10 11 0 0
BITMAP
001400
02FF40
07FFC0
0FABD0
2F1BD0
7FFFC0
7FFE00
3F9000
3D0000
7C0000
780000
ENDCHAR
STARTCHAR Q
ENCODING 81
SWIDTH 744 0
DWIDTH 10 0
BBX 10 11 0 -1
BITMAP
003E00
007F80
02FFC0
0BE2E0
3F80F0
BD79F0
F82FF0
F5BFD0
BFFFC0
2FE7D0
000180
ENDCHAR
STARTCHAR R
ENCODING 82
SWIDTH 646 0
DWIDTH 9 0
BBX 9 11 0 -1
BITMAP
00F400
02FD00
1BFF00
3F5F40
3EBF00
7FFD00
7F9000
BFD000
BBFF80
707FC0
000540
ENDCHAR
STARTCHAR S
ENCODING 83
SWIDTH 576 0
DWIDTH 8 0
BBX 10 11 0 0
BITMAP
000100
01BFC0
2FFFD0
BF9540
BFD000
6FF000
007800
007C00
06F800
7FE000
3E4000
ENDCHAR
STARTCHAR T
ENCODING 84
SWIDTH 607 0
DWIDTH 9 0
BBX 11 12 0 -1
BITMAP
000050
5AFFF4
FFFFF8
7AF500
02F000
03D000
07C000
0B8000
0F0000
0F0000
0B8000
010000
ENDCHAR
STARTCHAR U
ENCODING 85
SWIDTH 695 0
DWIDTH 10 0
BBX 10 10 0 0
BITMAP
000090
2400E0
3C01F0
3D02F0
7D03E0
7C0FC0
7D7F40
3FFD00
2FF800
0B9000
ENDCHAR
STARTCHAR V
ENCODING 86
SWIDTH 583 0
DWIDTH 8 0
BBX 8 10 1 0
BITMAP
D00B
F02F
F47E
F4F8
FAF0
BFD0
BF80
7F00
7D00
2C00
ENDCHAR
STARTCHAR W
ENCODING 87
SWIDTH 994 0
DWIDTH 14 0
BBX 15 10 0 0
BITMAP
0A000070
1F4280F4
2F07D1F4
3E0FD2F0
3D2FC3E0
7C7FCBC0
BDFFDF80
BFFAFF40
7FE1FD00
1E40B800
ENDCHAR
STARTCHAR X
ENCODING 88
SWIDTH 623 0
DWIDTH 9 0
BBX 10 11 0 -1
BITMAP
280180
3E0BD0
2FBFC0
0BFE00
07F400
1FF400
7FF800
FD7E00
F42E00
E01D00
400000
ENDCHAR
STARTCHAR Y
ENCODING 89
SWIDTH 493 0
DWIDTH 7 0
BBX 9 11 0 -1
BITMAP
381F40
3C3F40
3DBD00
2FF400
1FE000
0FD000
1F8000
2F0000
7D0000
7C0000
140000
ENDCHAR
STARTCHAR Z
ENCODING 90
SWIDTH 664 0
DWIDTH 9 0
BBX 10 11 0 -1
BITMAP
0FFFD0
0BFFE0
016FD0
007F40
06FC00
1FE000
BF4000
FC6B40
FFFF40
BFF800
190000
ENDCHAR
STARTCHAR bracketleft
ENCODING 91
SWIDTH 387 0
DWIDTH 5 0
BBX 11 16 -1 -3
BITMAP
005A90
01FFF8
01F950
01E000
02D000
03C000
078000
0B8000
0B4000
0F0000
1E0000
2D0000
3D0000
7FF800
7FE800
100000
ENDCHAR
STARTCHAR backslash
ENCODING 92
SWIDTH 352 0
DWIDTH 5 0
BBX 3 12 1 -1
BITMAP
40
D0
E0
F0
B0
74
74
38
38
3C
2C
04
ENDCHAR
STARTCHAR bracketright
ENCODING 93
SWIDTH 403 0
DWIDTH 6 0
BBX 10 16 -4 -3
BITMAP
006A80
02FFE0
0196E0
0002D0
0003C0
0007C0
000780
000B40
000F00
001F00
002E00
003D00
007C00
BFF800
BFA400
100000
ENDCHAR
STARTCHAR asciicircum
ENCODING 94
SWIDTH 518 0
DWIDTH 7 0
BBX 7 9 0 2
BITMAP
0040
01E0
02F0
07F0
0FB4
2EB4
B874
F034
5010
ENDCHAR
STARTCHAR underscore
ENCODING 95
SWIDTH 708 0
DWIDTH 10 0
BBX 12 3 -2 -1
BITMAP
16AAA4
7FFFFE
155540
ENDCHAR
STARTCHAR grave
ENCODING 96
SWIDTH 754 0
DWIDTH 11 0
BBX 4 5 4 6
BITMAP
10
B4
BD
1F
06
ENDCHAR
STARTCHAR a
ENCODING 97
SWIDTH 581 0
DWIDTH 8 0
BBX 8 9 0 0
BITMAP
0040
01F0
0BF0
1FF4
2E78
7EBF
BBFD
F16D
E038
ENDCHAR
STARTCHAR b
ENCODING 98
SWIDTH 573 0
DWIDTH 8 0
BBX 9 10 -1 -1
BITMAP
015400
2FFE00
7F6F00
1BBE00
07FC00
0BAB00
0F0B40
1FBF40
1FF800
054000
ENDCHAR
STARTCHAR c
ENCODING 99
SWIDTH 513 0
DWIDTH 7 0
BBX 7 9 0 0
BITMAP
0010
01F8
0BF8
3F90
BD00
F000
F400
7FF4
1BF4
ENDCHAR
STARTCHAR d
ENCODING 100
SWIDTH 497 0
DWIDTH 7 0
BBX 7 9 0 0
BITMAP
1000
3900
7F80
35B0
3438
7478
BBF0
BF80
B900
ENDCHAR
STARTCHAR e
ENCODING 101
SWIDTH 521 0
DWIDTH 7 0
BBX 8 10 0 -1
BITMAP
0014
1BFE
3FE8
3E40
3FF0
7FE0
B410
BFF8
7FE4
0400
ENDCHAR
STARTCHAR f
ENCODING 102
SWIDTH 455 0
DWIDTH 6 0
BBX 9 9 -1 0
BITMAP
001540
06FFC0
1FE540
0B8000
1B5400
7FFD00
2E9400
2C0000
2C0000
ENDCHAR
STARTCHAR g
ENCODING 103
SWIDTH 652 0
DWIDTH 9 0
BBX 10 9 0 0
BITMAP
001000
00BC00
07F800
1FD000
3E1E00
B80FD0
F05FE0
BFFF80
7FA400
ENDCHAR
STARTCHAR h
ENCODING 104
SWIDTH 582 0
DWIDTH 8 0
BBX 8 9 0 0
BITMAP
0004
240D
3C1E
3C1F
7C2E
7EFE
BFFD
F97C
F438
ENDCHAR
STARTCHAR i
ENCODING 105
SWIDTH 320 0
DWIDTH 4 0
BBX 3 9 1 0
BITMAP
10
34
78
B8
F4
F0
F0
F0
A0
ENDCHAR
STARTCHAR j
ENCODING 106
SWIDTH 534 0
DWIDTH 7 0
BBX 10 9 -1 0
BITMAP
000540
0BFFF0
0FAFA0
001D00
002D00
003C00
007800
7EF400
2FD000
ENDCHAR
STARTCHAR k
ENCODING 107
SWIDTH 645 0
DWIDTH 9 0
BBX 10 8 0 0
BITMAP
0F4640
1F2F80
2EBE00
3FF400
7FD000
BFFA40
BC7FD0
740540
ENDCHAR
STARTCHAR l
ENCODING 108
SWIDTH 533 0
DWIDTH 7 0
BBX 7 9 0 0
BITMAP
0400
0F00
1E00
2D00
7C00
B800
B450
BFF8
7FA8
ENDCHAR
STARTCHAR m
ENCODING 109
SWIDTH 814 0
DWIDTH 11 0
BBX 12 9 0 0
BITMAP
010000
07C038
0FD1FD
1FE7FC
3FFFFC
7EFE78
B850B8
F400B4
A00060
ENDCHAR
STARTCHAR n
ENCODING 110
SWIDTH 564 0
DWIDTH 8 0
BBX 8 9 0 0
BITMAP
0004
0B4B
0F8F
2F5E
3F2E
BF7D
FFFC
F6F8
A0A0
ENDCHAR
STARTCHAR o
ENCODING 111
SWIDTH 628 0
DWIDTH 9 0
BBX 9 9 0 0
BITMAP
001000
00F800
07F800
1FAD00
3E0E00
B80B00
F01F40
BFFE00
7FE400
ENDCHAR
STARTCHAR p
ENCODING 112
SWIDTH 524 0
DWIDTH 7 0
BBX 8 10 0 -1
BITMAP
0150
0BFC
1FFE
2D6E
7FFD
BFE4
7900
7800
7400
1000
ENDCHAR
STARTCHAR q
ENCODING 113
SWIDTH 625 0
DWIDTH 9 0
BBX 9 10 0 -1
BITMAP
005000
00F800
02FD00
1FDF00
7E4740
B8EB40
F0BF00
FBFD00
7F9E00
000900
ENDCHAR
STARTCHAR r
ENCODING 114
SWIDTH 541 0
DWIDTH 8 0
BBX 8 10 0 -1
BITMAP
0040
03E0
0BF4
3E78
7EF8
7FE0
BF00
BFE4
B2FE
0014
ENDCHAR
STARTCHAR s
ENCODING 115
SWIDTH 463 0
DWIDTH 7 0
BBX 8 10 0 -1
BITMAP
0054
1BFE
BFAA
BE40
6FC0
00A0
01E0
6FD0
7E00
1000
ENDCHAR
STARTCHAR t
ENCODING 116
SWIDTH 479 0
DWIDTH 7 0
BBX 9 9 0 0
BITMAP
005540
BFFFC0
BFE940
03C000
0B8000
0F0000
1E0000
1D0000
0E0000
ENDCHAR
STARTCHAR u
ENCODING 117
SWIDTH 584 0
DWIDTH 8 0
BBX 9 9 0 0
BITMAP
000100
100300
380740
3C0B40
781F00
787E00
7EF800
3FF000
1F8000
ENDCHAR
STARTCHAR v
ENCODING 118
SWIDTH 485 0
DWIDTH 7 0
BBX 7 9 1 0
BITMAP
4010
D078
E0F8
F2E0
F7C0
BF40
BE00
7C00
3800
ENDCHAR
STARTCHAR w
ENCODING 119
SWIDTH 825 0
DWIDTH 12 0
BBX 13 8 0 0
BITMAP
1D040B00
2E1E0F40
3D2E1E00
7C7E3D00
78FD7C00
BBFEF400
7FCBF000
2E03C000
ENDCHAR
STARTCHAR x
ENCODING 120
SWIDTH 506 0
DWIDTH 7 0
BBX 8 9 0 -1
BITMAP
381E
3E7E
1FF8
0FD0
2FD0
BEF0
F0B4
D074
4000
ENDCHAR
STARTCHAR y
ENCODING 121
SWIDTH 400 0
DWIDTH 6 0
BBX 7 10 0 -1
BITMAP
1014
787C
39F8
3FE0
2FC0
1F40
2E00
3C00
7800
1000
ENDCHAR
STARTCHAR z
ENCODING 122
SWIDTH 547 0
DWIDTH 8 0
BBX 8 10 0 -1
BITMAP
0554
1FFE
0ABF
01F8
0BE0
2F80
FD14
FAFD
BFE4
1500
ENDCHAR
STARTCHAR braceleft
ENCODING 123
SWIDTH 448 0
DWIDTH 6 0
BBX 11 16 0 -3
BITMAP
005AA4
00FFFC
00F954
01E000
01E000
07D000
6F8000
BD0000
3F4000
0F4000
0F0000
1E0000
2D0000
3FFC00
3FE800
140000
ENDCHAR
STARTCHAR bar
ENCODING 124
SWIDTH 332 0
DWIDTH 5 0
BBX 5 10 0 0
BITMAP
0340
0780
0B40
0F00
1E00
2D00
3C00
7800
B000
E000
ENDCHAR
STARTCHAR braceright
ENCODING 125
SWIDTH 481 0
DWIDTH 7 0
BBX 11 16 -4 -3
BITMAP
016A80
02FFE0
0196D0
0002D0
0003C0
000780
000B80
0007F0
0006F4
001F90
002E00
003D00
007C00
BFF800
FFA000
100000
ENDCHAR
STARTCHAR asciitilde
ENCODING 126
SWIDTH 581 0
DWIDTH 8 0
BBX 8 3 0 3
BITMAP
1905
7FED
A2F8
ENDCHAR
STARTCHAR uni00A0
ENCODING 160
SWIDTH 370 0
DWIDTH 5 0
BBX 1 1 0 0
BITMAP
00
ENDCHAR
STARTCHAR exclamdown
ENCODING 161
SWIDTH 260 0
DWIDTH 4 0
BBX 4 12 0 -1
BITMAP
04
2D
2D
00
24
78
B8
B4
F0
F0
E0
40
ENDCHAR
STARTCHAR cent
ENCODING 162
SWIDTH 488 0
DWIDTH 7 0
BBX 7 11 0 -1
BITMAP
00C0
01E0
07F4
2F90
BD00
B000
B540
3FF0
1E90
2D00
0400
ENDCHAR
STARTCHAR sterling
ENCODING 163
SWIDTH 586 0
DWIDTH 8 0
BBX 8 8 0 1
BITMAP
01FE
07EF
0B40
BFF4
BFA4
2D14
BFFC
BFE8
ENDCHAR
STARTCHAR currency
ENCODING 164
SWIDTH 509 0
DWIDTH 7 0
BBX 7 8 0 0
BITMAP
1144
3FFC
2FF4
7DE0
7AF0
BFE0
A5E0
5040
ENDCHAR
STARTCHAR yen
ENCODING 165
SWIDTH 563 0
DWIDTH 8 0
BBX 8 9 0 0
BITMAP
1809
1E2F
0EBC
0FF4
6FF8
BFFD
1F40
1E00
1D00
ENDCHAR
STARTCHAR brokenbar
ENCODING 166
SWIDTH 301 0
DWIDTH 4 0
BBX 5 10 0 0
BITMAP
0300
0740
0B00
0E00
0900
0000
3400
B400
F000
E000
ENDCHAR
STARTCHAR section
ENCODING 167
SWIDTH 630 0
DWIDTH 9 0
BBX 9 13 0 -2
BITMAP
05BF40
2FFF80
2F5100
1FE000
1FFD00
7FAF00
7D6F40
2FFE00
07FC00
00BE00
BFFE00
BFE400
150000
ENDCHAR
STARTCHAR dieresis
ENCODING 168
SWIDTH 754 0
DWIDTH 11 0
BBX 6 2 3 8
BITMAP
B4F0
B4A0
ENDCHAR
STARTCHAR copyright
ENCODING 169
SWIDTH 614 0
DWIDTH 9 0
BBX 9 9 0 1
BITMAP
06F800
1E4A00
39B740
779240
AA0280
A79740
719E00
2AB800
015000
ENDCHAR
STARTCHAR ordfeminine
ENCODING 170
SWIDTH 454 0
DWIDTH 6 0
BBX 7 6 0 3
BITMAP
0380
1FC0
3FD0
7FF4
BBE0
A1D0
ENDCHAR
STARTCHAR guillemotleft
ENCODING 171
SWIDTH 566 0
DWIDTH 8 0
BBX 8 6 0 0
BITMAP
0709
1F2D
BAF4
F2D0
7CF4
1D28
ENDCHAR
STARTCHAR logicalnot
ENCODING 172
SWIDTH 698 0
DWIDTH 10 0
BBX 9 5 0 0
BITMAP
6AAA00
BFFF80
550B40
000F00
000E00
ENDCHAR
STARTCHAR sfthyphen
ENCODING 173
SWIDTH 608 0
DWIDTH 9 0
BBX 8 3 0 2
BITMAP
6AA8
BFFD
1500
ENDCHAR
STARTCHAR registered
ENCODING 174
SWIDTH 624 0
DWIDTH 9 0
BBX 9 9 0 1
BITMAP
02F800
0F5700
2CB740
76AA80
73E680
B7D740
756E00
1EB800
015000
ENDCHAR
STARTCHAR macron
ENCODING 175
SWIDTH 754 0
DWIDTH 11 0
BBX 6 3 3 8
BITMAP
1540
7FD0
6A40
ENDCHAR
STARTCHAR degree
ENCODING 176
SWIDTH 284 0
DWIDTH 4 0
BBX 5 5 1 7
BITMAP
0400
1E00
7F00
BB40
7E00
ENDCHAR
STARTCHAR plusminus
ENCODING 177
SWIDTH 559 0
DWIDTH 8 0
BBX 9 11 -1 -1
BITMAP
002000
007800
00B800
1BFF40
1FFE40
01F000
01E000
004000
6BF900
7FFE00
100000
ENDCHAR
STARTCHAR twosuperior
ENCODING 178
SWIDTH 386 0
DWIDTH 5 0
BBX 5 5 1 5
BITMAP
BE00
BF40
7E00
FE80
FE80
ENDCHAR
STARTCHAR threesuperior
ENCODING 179
SWIDTH 366 0
DWIDTH 5 0
BBX 5 5 1 5
BITMAP
AF00
FF40
3F00
2F40
7E00
ENDCHAR
STARTCHAR acute
ENCODING 180
SWIDTH 754 0
DWIDTH 11 0
BBX 4 5 4 6
BITMAP
01
1F
3E
B8
90
ENDCHAR
STARTCHAR mu
ENCODING 181
SWIDTH 569 0
DWIDTH 8 0
BBX 8 10 0 -2
BITMAP
0004
100A
380E
381E
783D
BAF8
BFE0
FF40
E000
4000
ENDCHAR
STARTCHAR paragraph
ENCODING 182
SWIDTH 729 0
DWIDTH 10 0
BBX 10 12 1 -1
BITMAP
000540
1BFFE0
BFFFE0
FEF780
F5EB40
BFEB40
1FFF00
03FF40
07AD00
07AE00
0B5E00
010400
ENDCHAR
STARTCHAR periodcentered
ENCODING 183
SWIDTH 226 0
DWIDTH 3 0
BBX 3 3 0 4
BITMAP
10
78
78
ENDCHAR
STARTCHAR cedilla
ENCODING 184
SWIDTH 754 0
DWIDTH 11 0
BBX 5 6 4 -5
BITMAP
2800
7800
7E00
1B40
FF00
1000
ENDCHAR
STARTCHAR onesuperior
ENCODING 185
SWIDTH 206 0
DWIDTH 3 0
BBX 2 5 1 5
BITMAP
A0
B0
B0
F0
D0
ENDCHAR
STARTCHAR ordmasculine
ENCODING 186
SWIDTH 445 0
DWIDTH 6 0
BBX 6 7 0 2
BITMAP
07C0
1FD0
7FE0
B9F0
BFF0
7F90
0400
ENDCHAR
STARTCHAR guillemotright
ENCODING 187
SWIDTH 595 0
DWIDTH 8 0
BBX 9 6 -1 0
BITMAP
282400
1E2D00
078B40
0B9F40
2E7D00
74A000
ENDCHAR
STARTCHAR onequarter
ENCODING 188
SWIDTH 705 0
DWIDTH 10 0
BBX 9 10 0 0
BITMAP
280A00
2C1E00
2C7C00
38F400
36D100
0BA380
1E3BC0
7C3FC0
B40F00
740B00
ENDCHAR
STARTCHAR onehalf
ENCODING 189
SWIDTH 750 0
DWIDTH 11 0
BBX 10 10 0 0
BITMAP
280A00
2C1E00
2C7C00
38F400
36D000
0BAF40
1E2BC0
7C1F40
B43FE0
742F90
ENDCHAR
STARTCHAR threequarters
ENCODING 190
SWIDTH 818 0
DWIDTH 11 0
BBX 10 11 1 -1
BITMAP
BF41C0
BF07C0
3E1F40
AF7D00
B9F040
07E9D0
1F2EE0
3C2FD0
B40B00
B00B00
000100
ENDCHAR
STARTCHAR questiondown
ENCODING 191
SWIDTH 556 0
DWIDTH 8 0
BBX 8 11 -1 -1
BITMAP
000E
000F
0001
0028
01B8
0BE0
7F80
BD04
BFFE
7FFD
0150
ENDCHAR
STARTCHAR Agrave
ENCODING 192
SWIDTH 702 0
DWIDTH 10 0
BBX 11 15 -1 0
BITMAP
000400
002D00
002F40
0007C0
000180
000E00
007F40
01FF80
03FF80
07D7C0
0FDBF8
1FFFF4
2EBAE0
7D07E0
3803C0
ENDCHAR
STARTCHAR Aacute
ENCODING 193
SWIDTH 702 0
DWIDTH 10 0
BBX 11 16 -1 0
BITMAP
000040
0002C0
000FC0
002E00
001400
000000
000E00
007F40
01FF80
03FF80
07D7C0
0FDBF8
1FFFF4
2EBAE0
7D07E0
3803C0
ENDCHAR
STARTCHAR Acircumflex
ENCODING 194
SWIDTH 702 0
DWIDTH 10 0
BBX 11 14 -1 0
BITMAP
000A00
002FC0
00B9F0
006050
000E00
007F40
01FF80
03FF80
07D7C0
0FDBF8
1FFFF4
2EBAE0
7D07E0
3803C0
ENDCHAR
STARTCHAR Atilde
ENCODING 195
SWIDTH 702 0
DWIDTH 10 0
BBX 11 14 -1 0
BITMAP
000504
003FBC
0076F4
000000
000E00
007F40
01FF80
03FF80
07D7C0
0FDBF8
1FFFF4
2EBAE0
7D07E0
3803C0
ENDCHAR
STARTCHAR Adieresis
ENCODING 196
SWIDTH 702 0
DWIDTH 10 0
BBX 11 13 -1 0
BITMAP
00B4F0
00B4A0
000000
000E00
007F40
01FF80
03FF80
07D7C0
0FDBF8
1FFFF4
2EBAE0
7D07E0
3803C0
ENDCHAR
STARTCHAR Aring
ENCODING 197
SWIDTH 702 0
DWIDTH 10 0
BBX 11 14 -1 0
BITMAP
000040
0007C0
000ED0
001EE0
001F80
007F40
01FF80
03FF80
07D7C0
0FDBF8
1FFFF4
2EBAE0
7D07E0
3803C0
ENDCHAR
STARTCHAR AE
ENCODING 198
SWIDTH 1153 0
DWIDTH 16 0
BBX 18 10 -1 0
BITMAP
000B416FD0
006F9FFFD0
01FFAFF900
03FF9F5400
07D7DFFE00
0F9BFFFD00
2FFFFD0000
7DEBFD5A00
B80BFFFF80
B40B6FF900
ENDCHAR
STARTCHAR Ccedilla
ENCODING 199
SWIDTH 611 0
DWIDTH 9 0
BBX 9 15 0 -5
BITMAP
002E00
02FF40
1FFE00
3FD000
BE0000
F80000
F00000
BE5400
3FFE00
0BFD00
0F0000
0FC000
01E000
2FE000
050000
ENDCHAR
STARTCHAR Egrave
ENCODING 200
SWIDTH 626 0
DWIDTH 9 0
BBX 9 16 0 0
BITMAP
004000
01E000
01F800
007D00
000900
000000
01AF80
2FFF80
3FE500
2F5400
2FFD00
3FF800
BC0000
F95A00
BFFF00
7FF900
ENDCHAR
STARTCHAR Eacute
ENCODING 201
SWIDTH 626 0
DWIDTH 9 0
BBX 9 15 0 0
BITMAP
000100
001F00
003E00
00B800
009000
01AF80
2FFF80
3FE500
2F5400
2FFD00
3FF800
BC0000
F95A00
BFFF00
7FF900
ENDCHAR
STARTCHAR Ecircumflex
ENCODING 202
SWIDTH 626 0
DWIDTH 9 0
BBX 9 15 0 0
BITMAP
006400
01FE00
03DB40
024200
000000
01AF80
2FFF80
3FE500
2F5400
2FFD00
3FF800
BC0000
F95A00
BFFF00
7FF900
ENDCHAR
STARTCHAR Edieresis
ENCODING 203
SWIDTH 626 0
DWIDTH 9 0
BBX 9 13 0 0
BITMAP
03C780
038740
000000
01AF80
2FFF80
3FE500
2F5400
2FFD00
3FF800
BC0000
F95A00
BFFF00
7FF900
ENDCHAR
STARTCHAR Igrave
ENCODING 204
SWIDTH 515 0
DWIDTH 7 0
BBX 10 15 -1 0
BITMAP
00F400
00BD00
002F00
000600
000000
07FFE0
07FFE0
017C00
007800
00B400
00F000
02E000
03E400
7FFC00
7EA400
ENDCHAR
STARTCHAR Iacute
ENCODING 205
SWIDTH 515 0
DWIDTH 7 0
BBX 10 16 -1 0
BITMAP
000040
0001E0
0007E0
000F40
000900
000000
07FFE0
07FFE0
017C00
007800
00B400
00F000
02E000
03E400
7FFC00
7EA400
ENDCHAR
STARTCHAR Icircumflex
ENCODING 206
SWIDTH 515 0
DWIDTH 7 0
BBX 10 15 -1 0
BITMAP
000A00
003F80
00F6E0
005090
000000
07FFE0
07FFE0
017C00
007800
00B400
00F000
02E000
03E400
7FFC00
7EA400
ENDCHAR
STARTCHAR Idieresis
ENCODING 207
SWIDTH 515 0
DWIDTH 7 0
BBX 10 13 -1 0
BITMAP
00B4F0
00B4A0
000000
07FFE0
07FFE0
017C00
007800
00B400
00F000
02E000
03E400
7FFC00
7EA400
ENDCHAR
STARTCHAR Eth
ENCODING 208
SWIDTH 656 0
DWIDTH 9 0
BBX 9 10 0 0
BITMAP
0E4000
0FE400
1EBD00
1E1B40
FFC380
FF87C0
5E6F80
2FFE00
2FE400
1E4000
ENDCHAR
STARTCHAR Ntilde
ENCODING 209
SWIDTH 684 0
DWIDTH 10 0
BBX 11 14 0 0
BITMAP
001410
00BFB4
00EBE0
000000
0381D0
07D2E0
0FD3E0
1FC3D0
3FC7C0
7FCBC0
BFEF80
FDFF40
F4BE00
702800
ENDCHAR
STARTCHAR Ograve
ENCODING 210
SWIDTH 744 0
DWIDTH 10 0
BBX 10 15 0 0
BITMAP
000400
002D00
002F40
0007D0
000580
002E00
00BF40
07FF40
1FEB80
3F43D0
7D01E0
B802F0
F96FE0
BFFF80
2FF900
ENDCHAR
STARTCHAR Oacute
ENCODING 211
SWIDTH 744 0
DWIDTH 10 0
BBX 10 15 0 0
BITMAP
000100
000B00
003F00
00B800
005400
002E00
00BF40
07FF40
1FEB80
3F43D0
7D01E0
B802F0
F96FE0
BFFF80
2FF900
ENDCHAR
STARTCHAR Ocircumflex
ENCODING 212
SWIDTH 744 0
DWIDTH 10 0
BBX 10 15 0 0
BITMAP
000A00
007F80
00F6E0
005090
000400
002E00
00BF40
07FF40
1FEB80
3F43D0
7D01E0
B802F0
F96FE0
BFFF80
2FF900
ENDCHAR
STARTCHAR Otilde
ENCODING 213
SWIDTH 744 0
DWIDTH 10 0
BBX 11 14 0 0
BITMAP
001410
00BFB4
00EBE0
000500
002E00
00BF40
07FF40
1FEB80
3F43D0
7D01E0
B802F0
F96FE0
BFFF80
2FF900
ENDCHAR
STARTCHAR Odieresis
ENCODING 214
SWIDTH 744 0
DWIDTH 10 0
BBX 10 13 0 0
BITMAP
00F1E0
00E1D0
000400
002E00
00BF40
07FF40
1FEB80
3F43D0
7D01E0
B802F0
F96FE0
BFFF80
2FF900
ENDCHAR
STARTCHAR multiply
ENCODING 215
SWIDTH 490 0
DWIDTH 7 0
BBX 7 7 0 0
BITMAP
3878
2EF4
0F80
2F40
7AC0
E1E0
9090
ENDCHAR
STARTCHAR Oslash
ENCODING 216
SWIDTH 744 0
DWIDTH 10 0
BBX 10 13 0 -2
BITMAP
000400
002EA0
00BFE0
07FFD0
1FEFC0
3F7FD0
7DBDE0
BAF6F0
FBFFE0
BFFF80
2FF900
2E0000
190000
ENDCHAR
STARTCHAR Ugrave
ENCODING 217
SWIDTH 695 0
DWIDTH 10 0
BBX 10 15 0 0
BITMAP
010000
03D000
02F000
00B800
001800
000090
2400E0
3C01F0
3D02F0
7D03E0
7C0FC0
7D7F40
3FFD00
2FF800
0B9000
ENDCHAR
STARTCHAR Uacute
ENCODING 218
SWIDTH 695 0
DWIDTH 10 0
BBX 10 15 0 0
BITMAP
000100
000780
001F80
003D00
002400
000090
2400E0
3C01F0
3D02F0
7D03E0
7C0FC0
7D7F40
3FFD00
2FF800
0B9000
ENDCHAR
STARTCHAR Ucircumflex
ENCODING 219
SWIDTH 695 0
DWIDTH 10 0
BBX 10 15 0 0
BITMAP
002800
00FE00
03DB80
014240
000000
000090
2400E0
3C01F0
3D02F0
7D03E0
7C0FC0
7D7F40
3FFD00
2FF800
0B9000
ENDCHAR
STARTCHAR Udieresis
ENCODING 220
SWIDTH 695 0
DWIDTH 10 0
BBX 10 13 0 0
BITMAP
03D7C0
03C380
000000
000090
2400E0
3C01F0
3D02F0
7D03E0
7C0FC0
7D7F40
3FFD00
2FF800
0B9000
ENDCHAR
STARTCHAR Yacute
ENCODING 221
SWIDTH 493 0
DWIDTH 7 0
BBX 9 16 0 -1
BITMAP
001F00
007E00
00F800
009000
000000
381F40
3C3F40
3DBD00
2FF400
1FE000
0FD000
1F8000
2F0000
7D0000
7C0000
140000
ENDCHAR
STARTCHAR Thorn
ENCODING 222
SWIDTH 680 0
DWIDTH 10 0
BBX 10 10 0 0
BITMAP
0D0000
1E5000
2FFF40
3FAFD0
7D0BE0
7C6FD0
BFFE00
BFD000
7D0000
380000
ENDCHAR
STARTCHAR germandbls
ENCODING 223
SWIDTH 931 0
DWIDTH 13 0
BBX 15 10 0 -1
BITMAP
00540150
1BFE6FF4
BFABFEA4
BE47F800
6FC2BE00
00A00740
01E00B40
6FD2BE00
7E02F400
10004000
ENDCHAR
STARTCHAR agrave
ENCODING 224
SWIDTH 581 0
DWIDTH 8 0
BBX 8 14 0 0
BITMAP
0040
02D0
02F4
007C
0018
0040
01F0
0BF0
1FF4
2E78
7EBF
BBFD
F16D
E038
ENDCHAR
STARTCHAR aacute
ENCODING 225
SWIDTH 581 0
DWIDTH 8 0
BBX 8 14 0 0
BITMAP
0004
003C
00F8
02E0
0240
0040
01F0
0BF0
1FF4
2E78
7EBF
BBFD
F16D
E038
ENDCHAR
STARTCHAR acircumflex
ENCODING 226
SWIDTH 581 0
DWIDTH 8 0
BBX 8 13 0 0
BITMAP
00A0
02F8
0B5E
0505
0040
01F0
0BF0
1FF4
2E78
7EBF
BBFD
F16D
E038
ENDCHAR
STARTCHAR atilde
ENCODING 227
SWIDTH 581 0
DWIDTH 8 0
BBX 9 12 0 0
BITMAP
015140
07FB80
0B7E00
004000
01F000
0BF000
1FF400
2E7800
7EBF00
BBFD00
F16D00
E03800
ENDCHAR
STARTCHAR adieresis
ENCODING 228
SWIDTH 581 0
DWIDTH 8 0
BBX 9 12 0 0
BITMAP
078B40
074B00
000000
004000
01F000
0BF000
1FF400
2E7800
7EBF00
BBFD00
F16D00
E03800
ENDCHAR
STARTCHAR aring
ENCODING 229
SWIDTH 581 0
DWIDTH 8 0
BBX 8 12 0 0
BITMAP
0014
0078
01ED
02ED
01F4
0BF0
1FF4
2E78
7EBF
BBFD
F16D
E038
ENDCHAR
STARTCHAR ae
ENCODING 230
SWIDTH 948 0
DWIDTH 13 0
BBX 15 9 -1 0
BITMAP
00000050
003D6FF8
02FDFFA0
07FDF900
0FAEFFC0
1FAFFF80
3FFFD040
B56FFFE0
B02EFF90
ENDCHAR
STARTCHAR ccedilla
ENCODING 231
SWIDTH 513 0
DWIDTH 7 0
BBX 7 13 0 -4
BITMAP
0010
01F8
0BF8
3F90
BD00
F000
F400
7FF4
1FF4
0E00
0B80
16D0
2F80
ENDCHAR
STARTCHAR egrave
ENCODING 232
SWIDTH 521 0
DWIDTH 7 0
BBX 8 15 0 -1
BITMAP
0400
0F00
0FC0
02E0
0050
0014
1BFE
3FE8
3E40
3FF0
7FE0
B410
BFF8
7FE4
0400
ENDCHAR
STARTCHAR eacute
ENCODING 233
SWIDTH 521 0
DWIDTH 7 0
BBX 8 14 0 -1
BITMAP
007C
01F8
03E0
0240
0014
1BFE
3FE8
3E40
3FF0
7FE0
B410
BFF8
7FE4
0400
ENDCHAR
STARTCHAR ecircumflex
ENCODING 234
SWIDTH 521 0
DWIDTH 7 0
BBX 8 14 0 -1
BITMAP
00A0
02FC
0B9F
0605
0014
1BFE
3FE8
3E40
3FF0
7FE0
B410
BFF8
7FE4
0400
ENDCHAR
STARTCHAR edieresis
ENCODING 235
SWIDTH 521 0
DWIDTH 7 0
BBX 9 13 0 -1
BITMAP
078B40
074B00
000000
001400
1BFE00
3FE800
3E4000
3FF000
7FE000
B41000
BFF800
7FE400
040000
ENDCHAR
STARTCHAR igrave
ENCODING 236
SWIDTH 320 0
DWIDTH 4 0
BBX 4 14 1 0
BITMAP
10
B4
BD
1F
06
10
34
78
B8
F4
F0
F0
F0
A0
ENDCHAR
STARTCHAR iacute
ENCODING 237
SWIDTH 320 0
DWIDTH 4 0
BBX 6 14 1 0
BITMAP
0010
00B0
02F0
0B80
0600
1000
3400
7800
B800
F400
F000
F000
F000
A000
ENDCHAR
STARTCHAR icircumflex
ENCODING 238
SWIDTH 320 0
DWIDTH 4 0
BBX 7 13 0 0
BITMAP
0640
1FD0
7DF4
2020
0400
0D00
1E00
2E00
3D00
3C00
3C00
3C00
2800
ENDCHAR
STARTCHAR idieresis
ENCODING 239
SWIDTH 320 0
DWIDTH 4 0
BBX 7 12 0 0
BITMAP
78B4
74B4
0000
0400
0D00
1E00
2E00
3D00
3C00
3C00
3C00
2800
ENDCHAR
STARTCHAR eth
ENCODING 240
SWIDTH 541 0
DWIDTH 8 0
BBX 9 9 -1 0
BITMAP
040000
0B9000
0BF800
0B1E00
7FC700
3F4B40
0FBE00
0FF400
0F4000
ENDCHAR
STARTCHAR ntilde
ENCODING 241
SWIDTH 564 0
DWIDTH 8 0
BBX 10 13 0 0
BITMAP
005450
01FEE0
03DF80
000000
000400
0B4B00
0F8F00
2F5E00
3F2E00
BF7D00
FFFC00
F6F800
A0A000
ENDCHAR
STARTCHAR ograve
ENCODING 242
SWIDTH 628 0
DWIDTH 9 0
BBX 9 14 0 0
BITMAP
004000
00E000
00FC00
002E00
000900
001000
00F800
07F800
1FAD00
3E0E00
B80B00
F01F40
BFFE00
7FE400
ENDCHAR
STARTCHAR oacute
ENCODING 243
SWIDTH 628 0
DWIDTH 9 0
BBX 9 14 0 0
BITMAP
000400
002D00
00BD00
01F000
018000
001000
00F800
07F800
1FAD00
3E0E00
B80B00
F01F40
BFFE00
7FE400
ENDCHAR
STARTCHAR ocircumflex
ENCODING 244
SWIDTH 628 0
DWIDTH 9 0
BBX 9 13 0 0
BITMAP
002800
00FE00
03DB80
014240
001000
00F800
07F800
1FAD00
3E0E00
B80B00
F01F40
BFFE00
7FE400
ENDCHAR
STARTCHAR otilde
ENCODING 245
SWIDTH 628 0
DWIDTH 9 0
BBX 10 12 0 0
BITMAP
005450
01FEE0
03DF80
001000
00F800
07F800
1FAD00
3E0E00
B80B00
F01F40
BFFE00
7FE400
ENDCHAR
STARTCHAR odieresis
ENCODING 246
SWIDTH 628 0
DWIDTH 9 0
BBX 9 12 0 0
BITMAP
02D3C0
02D280
000000
001000
00F800
07F800
1FAD00
3E0E00
B80B00
F01F40
BFFE00
7FE400
ENDCHAR
STARTCHAR divide
ENCODING 247
SWIDTH 559 0
DWIDTH 8 0
BBX 7 8 0 0
BITMAP
02C0
03D0
0140
AFF8
BFE8
1400
0F40
0F00
ENDCHAR
STARTCHAR oslash
ENCODING 248
SWIDTH 632 0
DWIDTH 9 0
BBX 9 11 0 -2
BITMAP
001100
00FF40
07FF00
1FFE00
3EBE00
B9EB00
B7DF40
BFFF00
7FE400
3D0000
140000
ENDCHAR
STARTCHAR ugrave
ENCODING 249
SWIDTH 584 0
DWIDTH 8 0
BBX 9 14 0 0
BITMAP
010000
078000
07E000
00F800
002400
000100
100300
380740
3C0B40
781F00
787E00
7EF800
3FF000
1F8000
ENDCHAR
STARTCHAR uacute
ENCODING 250
SWIDTH 584 0
DWIDTH 8 0
BBX 9 12 0 0
BITMAP
001F00
007E00
00F800
009100
100300
380740
3C0B40
781F00
787E00
7EF800
3FF000
1F8000
ENDCHAR
STARTCHAR ucircumflex
ENCODING 251
SWIDTH 584 0
DWIDTH 8 0
BBX 9 13 0 0
BITMAP
006400
02FD00
079F00
020600
000100
100300
380740
3C0B40
781F00
787E00
7EF800
3FF000
1F8000
ENDCHAR
STARTCHAR udieresis
ENCODING 252
SWIDTH 584 0
DWIDTH 8 0
BBX 9 12 0 0
BITMAP
078B40
074B00
000000
000100
100300
380740
3C0B40
781F00
787E00
7EF800
3FF000
1F8000
ENDCHAR
STARTCHAR yacute
ENCODING 253
SWIDTH 400 0
DWIDTH 6 0
BBX 8 15 0 -1
BITMAP
0004
002D
00BD
01F4
0180
1014
787C
39F8
3FE0
2FC0
1F40
2E00
3C00
7800
1000
ENDCHAR
STARTCHAR thorn
ENCODING 254
SWIDTH 579 0
DWIDTH 8 0
BBX 8 9 0 0
BITMAP
0400
2C00
3FF8
3EAF
7C2F
BAFD
BFE0
7900
3400
ENDCHAR
STARTCHAR ydieresis
ENCODING 255
SWIDTH 400 0
DWIDTH 6 0
BBX 8 13 0 -1
BITMAP
0F1E
0E1D
0000
1014
787C
39F8
3FE0
2FC0
1F40
2E00
3C00
7800
1000
ENDCHAR
STARTCHAR dotlessi
ENCODING 305
SWIDTH 320 0
DWIDTH 4 0
BBX 3 9 1 0
BITMAP
10
34
78
B8
F4
F0
F0
F0
A0
ENDCHAR
STARTCHAR Lslash
ENCODING 321
SWIDTH 632 0
DWIDTH 9 0
BBX 11 10 -2 0
BITMAP
00B400
00F800
01F400
02FD00
2FF900
7FD000
1BC000
0FEA90
0BFFF4
07FAA4
ENDCHAR
STARTCHAR lslash
ENCODING 322
SWIDTH 533 0
DWIDTH 7 0
BBX 9 9 -2 0
BITMAP
004000
00F000
01E000
02E400
1BF800
7F8000
1F4500
0BFF80
07FA80
ENDCHAR
STARTCHAR OE
ENCODING 338
SWIDTH 1212 0
DWIDTH 17 0
BBX 17 11 0 0
BITMAP
0004000000
002E01AF80
00BF6FFFC0
07FF6FE500
1FEB9F5400
3F43EFFD00
7D01FFFD00
B802FD0000
F96FFD5A00
BFFFFFFF40
2FF92FF900
ENDCHAR
STARTCHAR oe
ENCODING 339
SWIDTH 1010 0
DWIDTH 14 0
BBX 15 9 0 0
BITMAP
00200050
00F86FF4
07FDFF90
1FADF500
3E0EFF80
B80BFE40
F01FD040
BFFFFFE0
7FE6FF90
ENDCHAR
STARTCHAR Scaron
ENCODING 352
SWIDTH 576 0
DWIDTH 8 0
BBX 10 15 0 0
BITMAP
014240
03DB80
00FE00
002800
000100
01BFC0
2FFFD0
BF9540
BFD000
6FF000
007800
007C00
06F800
7FE000
3E4000
ENDCHAR
STARTCHAR scaron
ENCODING 353
SWIDTH 463 0
DWIDTH 7 0
BBX 8 15 0 -1
BITMAP
0808
1E7D
07F4
0190
0000
0054
1BFE
BFAA
BE40
6FC0
00A0
01E0
6FD0
7E00
1000
ENDCHAR
STARTCHAR Ydieresis
ENCODING 376
SWIDTH 493 0
DWIDTH 7 0
BBX 9 15 0 -1
BITMAP
078B40
074B00
000000
000000
381F40
3C3F40
3DBD00
2FF400
1FE000
0FD000
1F8000
2F0000
7D0000
7C0000
140000
ENDCHAR
STARTCHAR Zcaron
ENCODING 381
SWIDTH 664 0
DWIDTH 9 0
BBX 10 16 0 -1
BITMAP
006050
00B9F0
002FC0
000A00
000000
0FFFD0
0BFFE0
016FD0
007F40
06FC00
1FE000
BF4000
FC6B40
FFFF40
BFF800
190000
ENDCHAR
STARTCHAR zcaron
ENCODING 382
SWIDTH 547 0
DWIDTH 8 0
BBX 9 15 0 -1
BITMAP
014240
03DB80
00FE00
002800
000000
055400
1FFE00
0ABF00
01F800
0BE000
2F8000
FD1400
FAFD00
BFE400
150000
ENDCHAR
STARTCHAR circumflex
ENCODING 710
SWIDTH 754 0
DWIDTH 11 0
BBX 6 4 3 7
BITMAP
0A00
2FC0
B9F0
6050
ENDCHAR
STARTCHAR caron
ENCODING 711
SWIDTH 754 0
DWIDTH 11 0
BBX 6 4 3 7
BITMAP
6050
B9F0
2FC0
0A00
ENDCHAR
STARTCHAR breve
ENCODING 728
SWIDTH 754 0
DWIDTH 11 0
BBX 6 4 3 7
BITMAP
5050
BAF0
2FD0
0100
ENDCHAR
STARTCHAR dotaccent
ENCODING 729
SWIDTH 754 0
DWIDTH 11 0
BBX 2 2 5 8
BITMAP
F0
E0
ENDCHAR
STARTCHAR ring
ENCODING 730
SWIDTH 754 0
DWIDTH 11 0
BBX 4 5 4 7
BITMAP
04
1D
7E
FB
BD
ENDCHAR
STARTCHAR ogonek
ENCODING 731
SWIDTH 754 0
DWIDTH 11 0
BBX 6 5 4 -4
BITMAP
5000
A000
A000
7FD0
1A80
ENDCHAR
STARTCHAR tilde
ENCODING 732
SWIDTH 754 0
DWIDTH 11 0
BBX 7 3 3 8
BITMAP
1410
BFB4
EBE0
ENDCHAR
STARTCHAR hungarumlaut
ENCODING 733
SWIDTH 754 0
DWIDTH 11 0
BBX 8 5 2 6
BITMAP
0104
0B5E
2F7E
B8F8
6090
ENDCHAR
STARTCHAR endash
ENCODING 8211
SWIDTH 588 0
DWIDTH 8 0
BBX 8 3 0 2
BITMAP
6AA4
BFFD
1400
ENDCHAR
STARTCHAR emdash
ENCODING 8212
SWIDTH 878 0
DWIDTH 12 0
BBX 12 3 0 2
BITMAP
6AAAA4
BFFFFD
140000
ENDCHAR
STARTCHAR quoteleft
ENCODING 8216
SWIDTH 203 0
DWIDTH 3 0
BBX 4 5 1 6
BITMAP
14
7D
B8
B4
60
ENDCHAR
STARTCHAR quoteright
ENCODING 8217
SWIDTH 199 0
DWIDTH 3 0
BBX 4 5 1 6
BITMAP
14
3D
7C
B8
60
ENDCHAR
STARTCHAR quotesinglbase
ENCODING 8218
SWIDTH 204 0
DWIDTH 3 0
BBX 4 5 -2 -3
BITMAP
19
2E
3D
78
10
ENDCHAR
STARTCHAR quotedblleft
ENCODING 8220
SWIDTH 410 0
DWIDTH 6 0
BBX 7 5 1 6
BITMAP
1450
7DF4
BAE0
B6D0
7180
ENDCHAR
STARTCHAR quotedblright
ENCODING 8221
SWIDTH 425 0
DWIDTH 6 0
BBX 7 5 1 6
BITMAP
1450
3DB4
7DF0
BAE0
6180
ENDCHAR
STARTCHAR quotedblbase
ENCODING 8222
SWIDTH 430 0
DWIDTH 6 0
BBX 7 5 -2 -3
BITMAP
1934
2E7C
3DF4
79E0
1040
ENDCHAR
STARTCHAR bullet
ENCODING 8226
SWIDTH 299 0
DWIDTH 4 0
BBX 4 4 0 2
BITMAP
24
7D
7C
14
ENDCHAR
STARTCHAR ellipsis
ENCODING 8230
SWIDTH 768 0
DWIDTH 11 0
BBX 11 3 -1 -1
BITMAP
3C78B4
7C78B4
101010
ENDCHAR
STARTCHAR perthousand
ENCODING 8240
SWIDTH 889 0
DWIDTH 12 0
BBX 13 10 0 0
BITMAP
06008000
1F42C000
3B8B4000
7FAD0000
15B40000
02D50500
0B6E1F00
2D7B7B40
78BFBF80
74692900
ENDCHAR
STARTCHAR guilsinglleft
ENCODING 8249
SWIDTH 322 0
DWIDTH 5 0
BBX 4 6 0 0
BITMAP
07
1F
B8
F0
7C
1D
ENDCHAR
STARTCHAR guilsinglright
ENCODING 8250
SWIDTH 341 0
DWIDTH 5 0
BBX 5 6 -1 0
BITMAP
2800
1E00
0780
0B80
2E00
7400
ENDCHAR
STARTCHAR fraction
ENCODING 8260
SWIDTH 541 0
DWIDTH 8 0
BBX 8 10 0 0
BITMAP
000D
002D
00B8
01F0
03C0
0B40
2D00
7800
B000
B000
ENDCHAR
STARTCHAR Euro
ENCODING 8364
SWIDTH 565 0
DWIDTH 8 0
BBX 8 9 0 0
BITMAP
0014
00BD
07FD
1FD0
7F90
FFF4
7E50
1FFC
06A8
ENDCHAR
STARTCHAR Delta
ENCODING 8710
SWIDTH 403 0
DWIDTH 6 0
BBX 9 9 -1 0
BITMAP
015500
0BFF40
06F500
00E000
01D000
02C000
038000
6FE000
7FA000
ENDCHAR
STARTCHAR minus
ENCODING 8722
SWIDTH 548 0
DWIDTH 8 0
BBX 7 3 0 2
BITMAP
6AA4
FFFC
5400
ENDCHAR
STARTCHAR approxequal
ENCODING 8776
SWIDTH 323 0
DWIDTH 5 0
BBX 4 10 0 0
BITMAP
0D
1E
2F
2E
3D
7D
7C
7C
7C
3C
ENDCHAR
STARTCHAR fi
ENCODING 64257
SWIDTH 810 0
DWIDTH 11 0
BBX 12 9 -1 0
BITMAP
001544
06FFDD
1FE56D
0B802D
1B543C
7FFD7C
2E9478
2C0078
2C0038
ENDCHAR
STARTCHAR fl
ENCODING 64258
SWIDTH 1012 0
DWIDTH 14 0
BBX 15 10 -1 -1
BITMAP
00154400
06FFEE00
1FE56D00
0B803C00
1B547800
7FFDB400
2E94F140
2C00FFF8
2C00BEA8
00001000
ENDCHAR
STARTCHAR .notdef
ENCODING -1
SWIDTH 370 0
DWIDTH 5 0
BBX 1 1 0 0
BITMAP
00
ENDCHAR
ENDFONT
